<?xml version="1.0" encoding="utf-8"?>
<!-- Generator: Adobe Illustrator 16.0.0, SVG Export Plug-In . SVG Version: 6.00 Build 0)  -->
<!DOCTYPE svg PUBLIC "-//W3C//DTD SVG 1.1//EN" "http://www.w3.org/Graphics/SVG/1.1/DTD/svg11.dtd">
<svg version="1.1" id="Layer_1" xmlns="http://www.w3.org/2000/svg" xmlns:xlink="http://www.w3.org/1999/xlink" x="0px" y="0px"
	 width="800px" height="600px" viewBox="0 0 800 600" style="enable-background:new 0 0 800 600;" xml:space="preserve">
<style type="text/css">
<![CDATA[
	.st0{fill:#0A0A0A;}
]]>
</style>
<g>
	<path class="st0" d="M761.955,296.521c-35.827,2.847-70.139,14.309-104.525,23.997c-1.016-8.43-4.991-17.082-12.662-21.39
		c-11.519-7.248-26.641-5.971-38.305,0.258c-12.868,6.952-24.219,16.269-35.459,25.531c-4.325,3.68-10.464,3.716-14.991,7.062
		c-8.413,5.822-14.014,14.586-19.708,22.868c-3.421,5.139-8.005,9.336-11.574,14.346c-8.707,11.925-14.197,26.232-25.177,36.42
		c9.335-51.062,29.597-99.275,51.114-146.232c46.403-4.4,92.989-6.711,139.374-11.37c33.351-3.457,68.031-4.066,99.199-17.84
		c-21.314-6.433-43.759-7.284-65.849-6.285c-53.354-0.462-106.578,3.919-159.894,5.287c5.786-17.914,13.107-35.273,19.928-52.817
		c2.736-8.301,5.62-18.783-0.721-26.178c-4.455-6.1-14.069-6.303-19.429-1.331c-6.156,5.638-7.007,14.457-9.43,21.98
		c-6.82,21.168-14.067,42.373-24.68,61.968c-31.483,2.311-62.743,7.118-94.024,11.314c-20.464,2.939-41.133,5.343-60.95,11.48
		c-7.099,2.367-15.215,5.084-18.413,12.572c6.582,7.062,16.638,8.43,25.734,9.28c15.585,0.851,31.057-1.756,46.382-4.159
		c29.432-5.325,59.196-8.912,89.052-10.593c-10.057,26.861-23.312,52.465-38.545,76.74c-15.88,27.414-34.293,54.59-60.008,73.669
		c-1.591-31.205,24.402-58.159,17.044-89.661c4.142-5.99,8.634-13.421,5.824-20.946c-1.757-5.823-8.873-6.618-13.995-6.026
		c-10.5,1.422-17.747,9.89-25.18,16.564c-14.03,12.423-27.396,25.548-40.817,38.601c-13.57,12.183-25.901,25.882-41.078,36.197
		c5.879-14.234,13.884-27.916,16.176-43.352c0.999-6.507-0.129-14.271-5.657-18.523c-5.897-4.476-14.511-3.605-20.373,0.498
		c-11.998,7.896-18.616,21.204-28.987,30.818c2.976-11.001,7.21-23.663,1.165-34.405c-2.718-5.822-10.316-7.671-15.751-4.602
		c-18.117,8.263-25.881,27.933-39.285,41.392c4.345-15.51,12.923-30.596,11-47.234c-0.721-6.784-5.731-12.904-12.46-14.438
		c-8.873-1.202-17.729,2.902-23.737,9.281c-24.384,24.402-39.987,55.683-61.728,82.211c-0.425-0.074-1.275-0.24-1.701-0.333
		l1.609-1.572c2.237-15.065,4.603-30.151,8.559-44.885c2.108-9.447,4.899-19.375,2.57-29.043
		c-2.348-9.317-17.082-11.018-21.575-2.645c-6.581,11.796-4.27,26.178-9.521,38.435c-5.989,13.902-16.231,25.345-26.196,36.512
		c-14.919,15.714-29.985,32.298-49.915,41.669c15.64-40.855,43.537-75.61,73.559-106.854c8.893-8.171,19.245-15.788,24.088-27.269
		c2.644-6.101,1.036-14.438-5.453-17.359c-7.451-2.107-14.771,1.83-21.075,5.453c-26.529,16.435-50.599,36.513-73.467,57.643
		c-8.633,7.893-16.545,16.6-23.737,25.825c-4.048,5.62-8.744,12.129-7.266,19.468c0.167,3.309,2.792,6.008,6.211,5.528
		c7.432-1.869,13.514-7.007,18.968-12.146c7.783-7.636,15.252-15.604,23.479-22.777c-10.63,18.304-25.347,34.184-33.48,53.946
		c-4.345,10-7.339,21.24-4.77,32.13c2.016,7.283,8.727,12.607,16.213,13.312c10.741,1.07,21.076-3.828,29.432-10.168
		c16.989-13.053,32.481-27.898,47.641-42.964c0.998,9.392,5.935,19.447,15.473,22.554c9.169,3.567,18.709-2.034,24.883-8.579
		c17.877-22.868,30.873-49.414,50.581-70.878c-5.824,20.188-19.19,37.714-22.147,58.806c-0.647,7.599-1.202,16.141,3.567,22.629
		c3.272,4.548,9.669,4.031,14.513,2.865c11.739-4.677,19.596-15.084,27.785-24.199c-1.682,5.472-3.068,11.222-1.958,16.972
		c0.757,7.728,7.32,14.918,15.362,14.992c5.694-0.425,11.111-3.031,15.271-6.895c13.107-11.74,20.113-28.545,32.611-40.802
		c-2.903,8.708-5.362,18.377-1.608,27.25c2.662,8.302,11.96,12.553,20.225,11.093c12.719-1.867,20.798-12.849,31.316-19.062
		c0.037,5.196-0.998,10.816,1.553,15.604c3.771,7.617,9.447,15.862,18.746,16.526c13.533,1.093,23.127-10.369,32.185-18.671
		c4.013,11.332,14.495,21.353,27.139,20.854c10.316,0.444,18.911-6.434,25.642-13.477c9.298-10.002,17.637-20.815,25.936-31.649
		c-0.536,11.812-0.388,24.551,6.583,34.681c6.729,10.334,22.46,11.685,31.834,4.252c9.854-7.209,14.974-18.745,23.736-26.99
		c1.442,16.268,11.98,32.906,28.673,36.604c16.786,3.715,32.888-5.084,45.608-15.214c24.901-18.727,42.058-46.827,48.916-77.091
		c28.932-9.134,58.696-15.29,87.461-24.921c10.26-3.42,20.872-6.729,29.689-13.218c4.087-2.791,6.102-8.597,3.551-13.089
		C775.1,296.539,767.465,296.392,761.955,296.521z M363.083,413.692c11.314-32.574,35.013-58.494,57.253-84.062
		C410.058,362.519,387.966,390.436,363.083,413.692z M610.013,387.589c-7.489,9.095-15.752,17.71-25.218,24.771
		c-6.082,4.326-16.472,6.693-20.926-1.052c-4.476-10.002-5.842-21.482-4.327-32.316c1.238-9.058,6.97-18.339,15.714-21.685
		c7.729-0.168,14.809,3.733,22.479,4.214c9.596,1.055,18.728-3.235,28.305-2.699C623.581,369.712,616.703,378.899,610.013,387.589z"
		/>
</g>
</svg>
