<?xml version="1.0" encoding="utf-8"?>
<!-- Generator: Adobe Illustrator 16.0.0, SVG Export Plug-In . SVG Version: 6.00 Build 0)  -->
<!DOCTYPE svg PUBLIC "-//W3C//DTD SVG 1.1//EN" "http://www.w3.org/Graphics/SVG/1.1/DTD/svg11.dtd">
<svg version="1.1" id="Layer_1" xmlns="http://www.w3.org/2000/svg" xmlns:xlink="http://www.w3.org/1999/xlink" x="0px" y="0px"
	 width="200px" height="200px" viewBox="0 0 200 200" enable-background="new 0 0 200 200" xml:space="preserve">
<g>
	<path fill="#F7F960" d="M100,193.156c-51.366,0-93.156-41.79-93.156-93.156c0-51.367,41.79-93.157,93.156-93.157
		s93.156,41.79,93.156,93.157C193.156,151.367,151.366,193.156,100,193.156z M100,16.844c-45.853,0-83.156,37.304-83.156,83.157
		c0,45.852,37.304,83.156,83.156,83.156s83.156-37.304,83.156-83.156C183.156,54.148,145.853,16.844,100,16.844z"/>
</g>
<g>
	<g>
		<g>
			<path fill="#F7F960" d="M148.215,78.922c-1.404-0.424-2.881,0.118-3.684,1.312l-10.252,11.604v19.589l10.252,11.603
				c0.621,0.928,1.658,1.457,2.736,1.457c0.314,0,0.633-0.046,0.947-0.138c1.383-0.417,2.391-1.691,2.391-3.128V82.043
				C150.605,80.607,149.598,79.34,148.215,78.922z"/>
		</g>
	</g>
	<g>
		<path fill="#F7F960" d="M121.221,68.984H55.926c-3.605,0-6.531,2.925-6.531,6.529v48.973c0,3.604,2.926,6.529,6.531,6.529h65.295
			c3.605,0,6.529-2.925,6.529-6.529V75.514C127.752,71.909,124.826,68.984,121.221,68.984z M82.043,114.69V88.573l16.326,13.06
			L82.043,114.69z"/>
	</g>
</g>
</svg>
