<?xml version="1.0" encoding="utf-8"?>
<!-- Generator: Adobe Illustrator 16.0.0, SVG Export Plug-In . SVG Version: 6.00 Build 0)  -->
<!DOCTYPE svg PUBLIC "-//W3C//DTD SVG 1.1//EN" "http://www.w3.org/Graphics/SVG/1.1/DTD/svg11.dtd">
<svg version="1.1" id="Layer_1" xmlns="http://www.w3.org/2000/svg" xmlns:xlink="http://www.w3.org/1999/xlink" x="0px" y="0px"
	 width="200px" height="200px" viewBox="0 0 200 200" enable-background="new 0 0 200 200" xml:space="preserve">
<g>
	<path fill="#F7F960" d="M100,193.156c-51.367,0-93.156-41.79-93.156-93.156S48.633,6.844,100,6.844
		c51.366,0,93.156,41.79,93.156,93.156S151.366,193.156,100,193.156z M100,16.844c-45.853,0-83.156,37.304-83.156,83.156
		S54.147,183.156,100,183.156s83.156-37.304,83.156-83.156S145.853,16.844,100,16.844z"/>
</g>
<g>
	<g id="Thunder">
		<g>
			<g>
				<path fill="#F7F960" d="M142.062,64.16H57.159c0,0-3.09,0.256-3.053,3.09c0.031,2.832,3.059,3.059,3.059,3.059h55.061
					L63.283,82.543c-1.921,0.428-3.261,1.016-3.059,3.059c0.202,2.051,1.089,3.061,3.059,3.061h42.824l-36.707,9.176
					c-1.884,0.49-3.297,1.047-3.059,3.059c0.232,2.02,1.114,3.061,3.059,3.061h36.707l-30.589,9.176
					c-1.792,0.623-3.358,1.113-3.059,3.059c0.3,1.945,1.175,3.059,3.059,3.059H99.99l-18.353,6.119
					c-1.604,0.824-3.475,1.242-3.06,3.059c0.404,1.816,1.272,3.059,3.06,3.059h21.412l-15.294,15.295l6.118,3.059l18.353-18.354
					c0,0,2.992-0.752,3.059-3.059c0.062-2.215-1.719-3.059-3.059-3.059H99.99l18.354-6.117c1.597-0.826,3.114-0.889,3.059-3.061
					c-0.043-1.859-1.272-3.059-3.059-3.059H93.873l33.648-9.176c1.792-0.619,3.358-1.115,3.059-3.061s-1.175-3.059-3.059-3.059
					H93.873l42.825-9.176c1.885-0.484,3.298-1.041,3.06-3.061c-0.233-2.012-1.114-3.059-3.06-3.059H90.813l52.002-12.236
					c1.921-0.422,3.261-1.016,3.059-3.059S144.026,64.16,142.062,64.16z"/>
			</g>
		</g>
	</g>
</g>
</svg>
