<?xml version="1.0" encoding="utf-8"?>
<!-- Generator: Adobe Illustrator 16.0.0, SVG Export Plug-In . SVG Version: 6.00 Build 0)  -->
<!DOCTYPE svg PUBLIC "-//W3C//DTD SVG 1.1//EN" "http://www.w3.org/Graphics/SVG/1.1/DTD/svg11.dtd">
<svg version="1.1" id="Layer_1" xmlns="http://www.w3.org/2000/svg" xmlns:xlink="http://www.w3.org/1999/xlink" x="0px" y="0px"
	 width="200px" height="200px" viewBox="0 0 200 200" enable-background="new 0 0 200 200" xml:space="preserve">
<g>
	<g id="Notes_2_">
		<g>
			<g>
				<path fill="#F7F960" d="M76.394,65.903v47.736c-2.551-1.207-5.381-1.125-8.763-1.125c-2.4,0-4.93,0.334-7.495,1.029
					c-10.734,2.926-17.881,11.191-15.965,18.467c1.459,5.538,7.754,8.906,15.413,8.906c2.4,0,4.93-0.327,7.495-1.029
					c9.751-2.66,16.407-9.295,16.135-16.02V79.541l47.737-6.819l0.007,23.8v11.075c-2.585-1.214-5.708-1.903-9.139-1.903
					c-2.434,0-4.998,0.327-7.597,1.03c-10.877,2.927-18.12,11.191-16.176,18.468c1.48,5.537,7.856,8.906,15.623,8.906
					c2.436,0,5-0.333,7.598-1.03c9.139-2.455,15.604-8.681,16.306-14.92l0.19-2.34V79.541l0.021-20.458L76.394,65.903z"/>
			</g>
		</g>
	</g>
</g>
<g>
	<path fill="#F7F960" d="M100,193.156c-51.367,0-93.156-41.79-93.156-93.156c0-51.367,41.79-93.157,93.156-93.157
		c51.366,0,93.156,41.79,93.156,93.157C193.156,151.367,151.366,193.156,100,193.156z M100,16.844
		c-45.853,0-83.156,37.304-83.156,83.157c0,45.852,37.304,83.156,83.156,83.156s83.156-37.304,83.156-83.156
		C183.156,54.148,145.853,16.844,100,16.844z"/>
</g>
</svg>
