<?xml version="1.0" encoding="utf-8"?>
<!-- Generator: Adobe Illustrator 16.0.0, SVG Export Plug-In . SVG Version: 6.00 Build 0)  -->
<!DOCTYPE svg PUBLIC "-//W3C//DTD SVG 1.1//EN" "http://www.w3.org/Graphics/SVG/1.1/DTD/svg11.dtd">
<svg version="1.1" id="Layer_1" xmlns="http://www.w3.org/2000/svg" xmlns:xlink="http://www.w3.org/1999/xlink" x="0px" y="0px"
	 width="200px" height="200px" viewBox="0 0 200 200" enable-background="new 0 0 200 200" xml:space="preserve">
<g>
	<path fill="#F7F960" d="M100,193.156c-51.367,0-93.156-41.79-93.156-93.156c0-51.367,41.79-93.157,93.156-93.157
		s93.156,41.79,93.156,93.157S151.366,193.156,100,193.156z M100,16.844c-45.853,0-83.156,37.304-83.156,83.157
		c0,45.853,37.304,83.156,83.156,83.156c45.852,0,83.156-37.304,83.156-83.156C183.156,54.148,145.854,16.844,100,16.844z"/>
</g>
<g>
	<g id="Glass_2_">
		<g>
			<path fill="#F7F960" d="M103.743,108.803l41.205-41.205H92.504l0,0c0-4.106-3.311-7.424-7.401-7.477L76.083,44.5l-6.488,3.747
				l9.042,15.658c-0.644,1.109-1.109,2.322-1.109,3.693l0,0H55.053l41.206,41.205v39.708L81.275,157.5h37.458l-14.983-8.989v-39.708
				H103.743z"/>
		</g>
	</g>
</g>
</svg>
