<?xml version="1.0" encoding="utf-8"?>
<!-- Generator: Adobe Illustrator 16.0.0, SVG Export Plug-In . SVG Version: 6.00 Build 0)  -->
<!DOCTYPE svg PUBLIC "-//W3C//DTD SVG 1.1//EN" "http://www.w3.org/Graphics/SVG/1.1/DTD/svg11.dtd">
<svg version="1.1" id="Layer_1" xmlns="http://www.w3.org/2000/svg" xmlns:xlink="http://www.w3.org/1999/xlink" x="0px" y="0px"
	 width="200px" height="200px" viewBox="0 0 200 200" enable-background="new 0 0 200 200" xml:space="preserve">
<g>
	<path fill="#F7F960" d="M100,193.156c-51.367,0-93.156-41.79-93.156-93.156c0-51.367,41.79-93.157,93.156-93.157
		s93.156,41.79,93.156,93.157C193.156,151.367,151.367,193.156,100,193.156z M100,16.844c-45.853,0-83.156,37.304-83.156,83.157
		c0,45.852,37.304,83.156,83.156,83.156s83.156-37.304,83.156-83.156C183.156,54.148,145.853,16.844,100,16.844z"/>
</g>
<g>
	<path fill="#F7F960" d="M129.828,51.53h-12.353C115.35,59.188,108.334,64.81,100,64.81S84.65,59.188,82.525,51.53H70.172
		L47.802,66.443l7.457,22.371l11.186-3.729v63.384h67.111V85.086l11.186,3.729l7.457-22.37L129.828,51.53z"/>
</g>
</svg>
