<?xml version="1.0" encoding="utf-8"?>
<!-- Generator: Adobe Illustrator 16.0.0, SVG Export Plug-In . SVG Version: 6.00 Build 0)  -->
<!DOCTYPE svg PUBLIC "-//W3C//DTD SVG 1.1//EN" "http://www.w3.org/Graphics/SVG/1.1/DTD/svg11.dtd">
<svg version="1.1" id="Layer_1" xmlns="http://www.w3.org/2000/svg" xmlns:xlink="http://www.w3.org/1999/xlink" x="0px" y="0px"
	 width="200px" height="200px" viewBox="0 0 200 200" enable-background="new 0 0 200 200" xml:space="preserve">
<g>
	<path fill="#F7F960" d="M100,193.156c-51.367,0-93.156-41.79-93.156-93.156S48.633,6.844,100,6.844s93.156,41.79,93.156,93.156
		S151.367,193.156,100,193.156z M100,16.844c-45.853,0-83.156,37.304-83.156,83.156S54.147,183.156,100,183.156
		s83.156-37.304,83.156-83.156S145.853,16.844,100,16.844z"/>
</g>
<g>
	<path fill="#F7F960" d="M125.821,78.63h-3.988h-7.587V67.896v-2.493V50.137H60.821v99.727h78.357V78.63H125.821z M85.753,128.493
		H78.63v-7.123h7.123V128.493z M85.753,114.246H78.63v-7.123h7.123V114.246z M85.753,100H78.63v-7.123h7.123V100z M110.685,128.493
		H92.876v-7.123h17.809V128.493z M114.246,114.246h-21.37v-7.123h21.37V114.246z M121.37,100H92.876v-7.123h28.494V100z"/>
</g>
</svg>
