<?xml version="1.0" encoding="utf-8"?>
<!-- Generator: Adobe Illustrator 16.0.0, SVG Export Plug-In . SVG Version: 6.00 Build 0)  -->
<!DOCTYPE svg PUBLIC "-//W3C//DTD SVG 1.1//EN" "http://www.w3.org/Graphics/SVG/1.1/DTD/svg11.dtd">
<svg version="1.1" id="Layer_1" xmlns="http://www.w3.org/2000/svg" xmlns:xlink="http://www.w3.org/1999/xlink" x="0px" y="0px"
	 width="200px" height="200px" viewBox="0 0 200 200" enable-background="new 0 0 200 200" xml:space="preserve">
<g>
	<path fill="#FF66CC" d="M100,193.156c-51.367,0-93.156-41.789-93.156-93.155c0-51.367,41.79-93.157,93.156-93.157
		s93.156,41.79,93.156,93.157C193.156,151.367,151.367,193.156,100,193.156z M100,16.845c-45.853,0-83.156,37.305-83.156,83.157
		c0,45.852,37.304,83.156,83.156,83.156c45.852,0,83.156-37.305,83.156-83.156C183.156,54.149,145.854,16.845,100,16.845z"/>
</g>
<g>
	<path id="YouTube__x28_alt_x29_" fill="#FF66CC" d="M150,79.953C150,71.693,143.309,65,135.057,65H64.944
		C56.69,65,50,71.693,50,79.953v40.093C50,128.305,56.69,135,64.944,135h70.111c8.254,0,14.944-6.695,14.944-14.954L150,79.953
		L150,79.953z M90,116.916v-37.66l28.559,18.829L90,116.916z"/>
</g>
<g display="none">
	<path id="Twitter__x28_alt_x29_" display="inline" fill="#F7F960" d="M144.749,95.583c6.499-0.537,10.907-3.492,12.604-7.501
		c-2.345,1.441-9.623,3.01-13.642,1.515c-0.198-0.944-0.418-1.841-0.634-2.651c-3.062-11.246-13.549-20.305-24.535-19.211
		c0.891-0.359,1.791-0.693,2.689-0.993c1.211-0.434,8.306-1.588,7.188-4.092c-0.941-2.203-9.609,1.665-11.242,2.17
		c2.153-0.81,5.719-2.204,6.1-4.68c-3.299,0.453-6.541,2.014-9.045,4.283c0.903-0.973,1.59-2.159,1.734-3.436
		c-8.805,5.625-13.947,16.965-18.11,27.965c-3.269-3.167-6.164-5.662-8.764-7.047c-7.29-3.91-16.007-7.988-29.69-13.068
		c-0.419,4.527,2.239,10.547,9.901,14.549c-1.66-0.221-4.695,0.274-7.123,0.855c0.988,5.187,4.218,9.46,12.959,11.525
		c-3.995,0.263-6.06,1.174-7.931,3.132c1.819,3.607,6.26,7.852,14.247,6.981c-8.881,3.826-3.621,10.915,3.604,9.857
		c-12.327,12.731-31.761,11.797-42.92,1.146c29.137,39.703,92.473,23.48,101.912-14.761c7.072,0.062,11.229-2.45,13.808-5.217
		C153.785,97.601,147.88,96.886,144.749,95.583z"/>
</g>
<g display="none">
	<path id="Facebook" display="inline" fill="#F7F960" d="M86.194,68.075c0,2.626,0,14.349,0,14.349H75.682V99.97h10.513v52.137
		h21.596V99.97h14.491c0,0,1.358-8.412,2.015-17.611c-1.888,0-16.425,0-16.425,0s0-10.208,0-11.997c0-1.793,2.354-4.204,4.685-4.204
		c2.32,0,7.225,0,11.764,0c0-2.39,0-10.644,0-18.266c-6.062,0-12.957,0-15.998,0C85.661,47.89,86.194,65.454,86.194,68.075z"/>
</g>
<g display="none">
	<path display="inline" fill="#F7F960" d="M125.038,78.539c-1.972,0-3.576-1.606-3.576-3.578v-7.154c0-1.97,1.604-3.577,3.576-3.577
		h7.153c1.973,0,3.578,1.606,3.578,3.577v7.154c0,1.972-1.605,3.578-3.578,3.578H125.038z"/>
	<path display="inline" fill="#F7F960" d="M100,86.365c-2.596,0-4.993,0.762-7.057,2.014c0.643-0.2,1.312-0.333,2.018-0.333
		c3.82,0,6.915,3.095,6.915,6.917c0,3.813-3.095,6.915-6.915,6.915s-6.915-3.098-6.915-6.915c0-0.712,0.139-1.38,0.335-2.021
		c-1.259,2.064-2.017,4.46-2.017,7.057c0,7.535,6.099,13.638,13.639,13.638c7.529,0,13.64-6.098,13.64-13.638
		S107.529,86.365,100,86.365z"/>
	<g display="inline">
		<path fill="#F7F960" d="M100,78.539c11.85,0,21.462,9.606,21.462,21.461c0,11.855-9.614,21.462-21.462,21.462
			c-11.851,0-21.461-9.606-21.461-21.462C78.539,88.145,88.149,78.539,100,78.539 M100,71.384
			c-15.778,0-28.615,12.838-28.615,28.616c0,15.777,12.837,28.616,28.615,28.616c15.777,0,28.616-12.839,28.616-28.616
			C128.616,84.222,115.777,71.384,100,71.384L100,71.384z"/>
	</g>
	<path display="inline" fill="#F7F960" d="M129.062,53.5H70.938c-9.632,0-17.438,7.805-17.438,17.438v58.125
		c0,9.633,7.805,17.438,17.438,17.438h58.125c9.633,0,17.438-7.806,17.438-17.438V70.938C146.5,61.305,138.693,53.5,129.062,53.5z
		 M139.348,85.693h-23.384c3.408,3.802,5.498,8.802,5.498,14.307c0,11.854-9.614,21.462-21.462,21.462
		c-11.851,0-21.461-9.606-21.461-21.462c0-5.505,2.088-10.509,5.497-14.307H60.654V70.938c0-5.669,4.614-10.284,10.284-10.284
		h58.125c5.674,0,10.285,4.614,10.285,10.284V85.693z"/>
</g>
</svg>
